<svg xmlns="http://www.w3.org/2000/svg" viewBox="0 0 500 500"><g id="freepik--Bushes--inject-33"><g id="freepik--Bush--inject-33"><path d="M12,260.72c-6.94-5-6.89-17.78,1.93-20.53-6.09-6.1-4.24-19.24,4.58-20.05-2.16-5.39-1.09-12.77,5.83-14.14-2.19-6.61,3.92-11.19,10.06-8.82.27-7,10.13-7.36,12.36-2.46-.12-2.7,3.92-7.69,6.51-7.7-4.48-3.51-3.24-10.52.6-11.46-5.22-4-2.43-13,3.81-12.91-4.18-6.59,4.74-13.48,10.28-11.45-3.14-7.41,11.53-13.3,14.7-5.45-.12-.31,1.23-1.6,1.46-1.81a9.32,9.32,0,0,1,1.9-1.4,11.66,11.66,0,0,1,4.58-1.38,15.39,15.39,0,0,1,9.59,2.28,11.44,11.44,0,0,1,3.71,3.71,9.16,9.16,0,0,1,1,2.35c.3,1.17,0,2.29.31,3.42a7.47,7.47,0,0,1,9,5.18,20.16,20.16,0,0,1,2.07-5.08,8.64,8.64,0,0,1,3.32-3.14c1.48-.78,2.74-1.72,4.52-1.61-5.32-6.84,5.47-14.78,11.21-9.36,2.67-6.27,12.21-4.95,11.58,2.41,2.12-3.84,6.27-3.57,9.68-1.52,4.71,2.83,4.08,7.87,1.49,11.95,2-2.33,7.92-3.62,8.82.24a4.67,4.67,0,0,1,6.73-.76c2.34-8.41,14.21-1.8,12.16,1.37a7.84,7.84,0,0,1,11.53-1.29c-1.59-4.34,2.23-9.69,6.85-9.59a9.79,9.79,0,0,1,3.6-8.8c2.7-1.93,6.92-1.72,9,.88a7.23,7.23,0,0,1,13.32,5.46,5.94,5.94,0,0,1,9.15-1.69c1.28-3,3.58-5.7,6.68-6.65s7,.33,8.22,3.32c.53-3.07,4.88-4.66,7.26-2.65-.57-3.45,2.05-7,5.42-7.89a9.73,9.73,0,0,1,9.47,3.09,14.42,14.42,0,0,1,3.37,9.69,5.65,5.65,0,0,1,8.19-1.29c-1.32-1.15,2.94-4.24,3.72-4.46a8,8,0,0,1,7.07,2A8.18,8.18,0,0,1,301,140.1a8.15,8.15,0,0,1,10.57,5.69,8.76,8.76,0,0,1,14.08,2.08c-.57-1.1,3.73-2.18,4.29-2.15a5.56,5.56,0,0,1,4.36,2.49,6,6,0,0,1,9.29-4.15,5,5,0,0,1,1.81-4.69c2.62-2.06,6.23-.8,7.75,1.95-.63-7.36,8.91-8.68,11.58-2.41,5.74-5.42,16.53,2.52,11.21,9.36,1.78-.11,3,.83,4.52,1.61a8.64,8.64,0,0,1,3.32,3.14,20.16,20.16,0,0,1,2.07,5.08,7.47,7.47,0,0,1,9.05-5.18c.32-1.13,0-2.25.31-3.42a9.16,9.16,0,0,1,1-2.35,11.44,11.44,0,0,1,3.71-3.71,15.39,15.39,0,0,1,9.59-2.28,11.66,11.66,0,0,1,4.58,1.38,9.32,9.32,0,0,1,1.9,1.4c.23.21,1.58,1.5,1.46,1.81,3.17-7.85,17.84-2,14.7,5.45,5.54-2,14.46,4.86,10.28,11.45,6.24-.09,9,8.95,3.81,12.91,3.84.94,5.08,7.95.6,11.46,2.59,0,6.63,5,6.51,7.7,2.23-4.9,12.09-4.5,12.36,2.46,6.14-2.37,12.25,2.21,10.06,8.82,6.92,1.37,8,8.75,5.83,14.14,8.82.81,10.67,14,4.58,20.05,8.82,2.75,8.87,15.58,1.93,20.53,4.59,2.2,5.05,12.86-2.44,15.81a7,7,0,0,1,.55.54c4.41,4.71.73,12.47-5.73,12.47H19.57c-6.46,0-10.14-7.76-5.73-12.47a7,7,0,0,1,.55-.54C6.9,273.58,7.36,262.92,12,260.72Z" style="fill:#455a64"></path><path d="M362.55,154.09a5.48,5.48,0,0,0-4.19,1.22,5.25,5.25,0,0,0-1-1.21,5.44,5.44,0,0,0-7.69.46,4.8,4.8,0,0,0-.55.75,6.47,6.47,0,0,1,7.5.79,5.21,5.21,0,0,1,.56.59,5.32,5.32,0,0,0-.74,2.1,5,5,0,0,0,0,.94,6.48,6.48,0,0,1,10.78-1.29A5.44,5.44,0,0,0,362.55,154.09Zm50.64,12a7.15,7.15,0,0,0-1.3,1.57,7.06,7.06,0,0,0-11.44,4.06,8.41,8.41,0,0,1,14,1.67,6.18,6.18,0,0,0,0-1.21,7,7,0,0,0-1-2.73,7.47,7.47,0,0,1,.73-.76,8.38,8.38,0,0,1,9.72-1,5.35,5.35,0,0,0-.71-1A7.07,7.07,0,0,0,413.19,166.14Zm74.86,94.58c6.94-5,6.89-17.78-1.93-20.53,6.09-6.1,4.24-19.24-4.58-20.05,2.16-5.39,1.09-12.77-5.83-14.14,2.19-6.61-3.92-11.19-10.06-8.82-.27-7-10.13-7.36-12.36-2.46.12-2.7-3.92-7.69-6.51-7.7,4.48-3.51,3.24-10.52-.6-11.46,5.22-4,2.43-13-3.81-12.91,3.32-5.23-1.62-10.65-6.57-11.64,1.8,2,3.43,4.67,2.12,7.42-1.16,2.47-4.34,2.9-6.44,3.94,5,1.68,7.29,6.7,3.57,11.1,5.1.65,5.75,7.42,3.71,10.17-1.25-1.09-3.85-1.33-5.75-1-2.56.48-3.93,1.78-6.23,4.34,4.53-3.5,9.14,3.2,6.26,7.15.8-1.11,4.38-.66,5.53-.45a7.74,7.74,0,0,1,5.89,10.12,6.26,6.26,0,0,1,6.94,9c4.55-1,11.54-.23,15.1,3.22,1.95,1.89,2.7,5.14,1.22,7.42.27-.43,3.86-.47,6.81,1.36a6.83,6.83,0,0,1,3,5.39c.12,2.39-1,5.63-2.09,6.78.23-.45,3,1.47,3.24,1.7a7,7,0,0,1,1.94,3,3.79,3.79,0,0,1-3.3,4.73,10.12,10.12,0,0,1,4.55,3.58,5.68,5.68,0,0,1,.51,5.58c-1.19,2.3-4,3.14-6.49,3.77a7.13,7.13,0,0,1,1.78,6.34,4.91,4.91,0,0,1-5,3.72A6.81,6.81,0,0,1,469.45,282c1.26-.08,2.22,2.56,2.54,3.39a46.34,46.34,0,0,0,2.13,4.13h6.31c6.46,0,10.14-7.76,5.73-12.47a7,7,0,0,0-.55-.54C493.1,273.58,492.64,262.92,488.05,260.72ZM142.65,154.1a5.25,5.25,0,0,0-1,1.21,5.43,5.43,0,0,0-8.82,3.13,6.48,6.48,0,0,1,10.78,1.29,5,5,0,0,0,0-.94,5.32,5.32,0,0,0-.74-2.1,5.21,5.21,0,0,1,.56-.59,6.47,6.47,0,0,1,7.5-.79,4.8,4.8,0,0,0-.55-.75A5.44,5.44,0,0,0,142.65,154.1Zm68.25,7.5a7,7,0,0,0-5.42,1.58,7,7,0,0,0-1.31-1.58,7.07,7.07,0,0,0-10,.6,5.87,5.87,0,0,0-.71,1,8.39,8.39,0,0,1,9.72,1,7.42,7.42,0,0,1,.73.76,7,7,0,0,0-1,2.73,5.49,5.49,0,0,0,0,1.21,8.41,8.41,0,0,1,14-1.67A7,7,0,0,0,210.9,161.6ZM67,182.67c-1.9-.36-4.5-.12-5.75,1-2-2.75-1.39-9.52,3.71-10.17-3.72-4.4-1.43-9.42,3.57-11.1-2.1-1-5.28-1.47-6.45-3.94-1.3-2.75.33-5.42,2.13-7.42-5,1-9.89,6.41-6.57,11.64-6.24-.09-9,8.95-3.81,12.91-3.84.94-5.08,7.95-.6,11.46-2.59,0-6.63,5-6.51,7.7-2.23-4.9-12.09-4.5-12.36,2.46-6.14-2.37-12.25,2.21-10.06,8.82-6.92,1.37-8,8.75-5.83,14.14-8.82.81-10.67,14-4.58,20.05C5.06,242.94,5,255.77,12,260.72c-4.59,2.2-5,12.86,2.44,15.81a7,7,0,0,0-.55.54c-4.41,4.71-.73,12.47,5.73,12.47h6.31A46.34,46.34,0,0,0,28,285.41c.32-.83,1.28-3.47,2.54-3.39a6.81,6.81,0,0,1-3.21-12.55,4.91,4.91,0,0,1-5.05-3.72,7.13,7.13,0,0,1,1.78-6.34c-2.51-.63-5.3-1.47-6.49-3.77a5.68,5.68,0,0,1,.51-5.58,10.12,10.12,0,0,1,4.55-3.58,3.79,3.79,0,0,1-3.3-4.73,7,7,0,0,1,1.94-3c.25-.23,3-2.15,3.24-1.7-1.1-1.15-2.21-4.39-2.09-6.78a6.83,6.83,0,0,1,3-5.39c3-1.83,6.54-1.79,6.81-1.36-1.48-2.28-.73-5.53,1.22-7.42,3.56-3.45,10.55-4.25,15.1-3.22a6.26,6.26,0,0,1,6.94-9,7.74,7.74,0,0,1,5.89-10.12c1.15-.21,4.73-.66,5.53.45-2.88-3.95,1.73-10.65,6.26-7.15C70.92,184.45,69.55,183.15,67,182.67ZM325.08,160a5.21,5.21,0,0,0-.78,1.37,5.44,5.44,0,0,0-8.13,4.63A6.48,6.48,0,0,1,327,165.4a4.33,4.33,0,0,0-.2-.92,5.36,5.36,0,0,0-1.09-1.94,4.7,4.7,0,0,1,.45-.68,6.46,6.46,0,0,1,7.24-2.1,5.19,5.19,0,0,0-.68-.64A5.44,5.44,0,0,0,325.08,160Zm-72.2-12.16a5.41,5.41,0,0,0-4.18,1.21,5.25,5.25,0,0,0-1-1.21,5.44,5.44,0,0,0-7.69.46,3.79,3.79,0,0,0-.55.75,6.45,6.45,0,0,1,7.49.79,5.27,5.27,0,0,1,.57.59,5.38,5.38,0,0,0-.74,2.1,4.25,4.25,0,0,0,0,.94,6.48,6.48,0,0,1,10.78-1.29A5.42,5.42,0,0,0,252.88,147.87Z" style="opacity:0.1"></path></g></g><g id="freepik--Floor--inject-33"><g id="freepik--Field--inject-33"><ellipse id="freepik--Grass--inject-33" cx="250.95" cy="324.76" rx="244.73" ry="149.77" style="fill:#9381FF"></ellipse><ellipse id="freepik--grass--inject-33" cx="250.95" cy="324.76" rx="244.73" ry="149.77" style="fill:#fff;opacity:0.5"></ellipse><g style="opacity:0.5"><path d="M27.45,326.11a8,8,0,0,0-1.19-2.39,8.4,8.4,0,0,0-1.13-1.18c-.26-.23-.67-.61-1-.51-.12,0-.11.25-.05.32.25.33.61.55.83.9a5,5,0,0,1,.41,1,18.67,18.67,0,0,1,.8,2.64,21.6,21.6,0,0,1,.34,2.51c0,.42.06.83.1,1.25a5.61,5.61,0,0,0,.29,1.14c0,.13.26.35.4.2a4.17,4.17,0,0,0,.76-3A10.4,10.4,0,0,0,27.45,326.11Z" style="fill:#9381FF"></path><path d="M30.54,313.27c-1.79,2.21-1.8,5.4-1.82,8.11,0,1.64,0,3.28.05,4.91a19.46,19.46,0,0,0,.44,5.24c.07.18.44.56.57.21.52-1.43.33-3.33.35-4.84s0-3.22,0-4.83a37.34,37.34,0,0,1,.22-4.36c.16-1.36.47-2.7.63-4.06C31,313.49,30.72,313.05,30.54,313.27Z" style="fill:#9381FF"></path><path d="M34.7,322c-.92.18-1.59,1.23-2,2a9.59,9.59,0,0,0-.81,2.23,15.81,15.81,0,0,0-.4,2.66c-.07,1-.27,2,.38,2.83.08.09.3.21.41.11.69-.58.52-1.71.58-2.53a18.93,18.93,0,0,1,.38-2.69,12.27,12.27,0,0,1,.74-2.19,9.63,9.63,0,0,0,.92-2.08C34.92,322.2,34.88,321.93,34.7,322Z" style="fill:#9381FF"></path><path d="M229.37,265.81a7.73,7.73,0,0,0-1.18-2.39,9.06,9.06,0,0,0-1.14-1.18c-.26-.23-.66-.61-1-.5-.11,0-.1.24,0,.31a12.07,12.07,0,0,1,.84.91,5.2,5.2,0,0,1,.4,1,17.23,17.23,0,0,1,.8,2.65,19.17,19.17,0,0,1,.34,2.51c0,.42.06.82.11,1.24a5.59,5.59,0,0,0,.28,1.14c.05.13.26.35.41.2a4.15,4.15,0,0,0,.75-3A10,10,0,0,0,229.37,265.81Z" style="fill:#9381FF"></path><path d="M232.46,253c-1.79,2.21-1.8,5.4-1.82,8.12,0,1.63,0,3.27.05,4.9a19.46,19.46,0,0,0,.45,5.24c.06.19.43.56.56.21.52-1.43.33-3.33.36-4.84s0-3.22,0-4.83a39.77,39.77,0,0,1,.21-4.36c.16-1.36.47-2.7.64-4.06C232.92,253.19,232.64,252.75,232.46,253Z" style="fill:#9381FF"></path><path d="M236.63,261.66c-.92.18-1.59,1.23-2,2a10.25,10.25,0,0,0-.81,2.23,15.8,15.8,0,0,0-.39,2.66,3.79,3.79,0,0,0,.38,2.83c.07.09.29.22.41.12.69-.58.52-1.72.58-2.54a18.58,18.58,0,0,1,.37-2.68,12.93,12.93,0,0,1,.74-2.2,9.16,9.16,0,0,0,.92-2.08C236.84,261.9,236.8,261.63,236.63,261.66Z" style="fill:#9381FF"></path><path d="M345.67,396.94a6.82,6.82,0,0,0-1-2.09,7.41,7.41,0,0,0-1-1c-.23-.2-.58-.53-.91-.44-.1,0-.09.21-.05.27.22.29.54.48.74.79a4.48,4.48,0,0,1,.35.85,14.73,14.73,0,0,1,.7,2.32,17.9,17.9,0,0,1,.3,2.2c0,.36.05.72.09,1.09a5,5,0,0,0,.25,1c0,.11.23.31.35.18a3.61,3.61,0,0,0,.66-2.66A9,9,0,0,0,345.67,396.94Z" style="fill:#9381FF"></path><path d="M348.37,385.71c-1.56,1.93-1.57,4.72-1.59,7.1,0,1.43,0,2.86,0,4.29a17.07,17.07,0,0,0,.39,4.58c.06.16.39.49.5.19a14.29,14.29,0,0,0,.31-4.24c0-1.41,0-2.82,0-4.22a32.47,32.47,0,0,1,.19-3.82c.13-1.19.41-2.36.55-3.55C348.77,385.9,348.53,385.52,348.37,385.71Z" style="fill:#9381FF"></path><path d="M352,393.31c-.81.15-1.4,1.08-1.76,1.76a8.74,8.74,0,0,0-.71,1.95,14,14,0,0,0-.34,2.32,3.32,3.32,0,0,0,.33,2.48c.07.08.26.19.36.1.6-.51.45-1.5.51-2.21a15.46,15.46,0,0,1,.33-2.35,10.55,10.55,0,0,1,.64-1.92,8.51,8.51,0,0,0,.81-1.83C352.2,393.52,352.17,393.28,352,393.31Z" style="fill:#9381FF"></path><path d="M419,406.48a7.08,7.08,0,0,1,1.09-2.18,8.11,8.11,0,0,1,1-1.08c.25-.21.61-.56,1-.46.1,0,.09.22,0,.28-.22.3-.56.51-.76.83a4.64,4.64,0,0,0-.37.89,15.68,15.68,0,0,0-.73,2.42,16.1,16.1,0,0,0-.31,2.3c0,.38-.06.75-.1,1.14a4.8,4.8,0,0,1-.26,1c0,.11-.24.32-.37.18a3.78,3.78,0,0,1-.69-2.78A9.47,9.47,0,0,1,419,406.48Z" style="fill:#9381FF"></path><path d="M416.22,394.74c1.63,2,1.64,4.94,1.66,7.42,0,1.5,0,3,0,4.49a17.82,17.82,0,0,1-.41,4.79c-.06.17-.4.51-.52.19a14.53,14.53,0,0,1-.32-4.43c0-1.47,0-2.94,0-4.41a35.54,35.54,0,0,0-.2-4c-.14-1.24-.43-2.47-.58-3.71C415.8,394.94,416.05,394.54,416.22,394.74Z" style="fill:#9381FF"></path><path d="M412.41,402.69c.84.16,1.45,1.12,1.83,1.83a8.74,8.74,0,0,1,.74,2,15.51,15.51,0,0,1,.37,2.43,3.53,3.53,0,0,1-.35,2.6c-.07.08-.27.19-.38.1-.63-.53-.47-1.57-.53-2.32a17,17,0,0,0-.34-2.45,11.6,11.6,0,0,0-.68-2,8.54,8.54,0,0,1-.84-1.91C412.21,402.9,412.25,402.66,412.41,402.69Z" style="fill:#9381FF"></path><path d="M270.87,233.65a6.66,6.66,0,0,0-1-2.08,6.83,6.83,0,0,0-1-1c-.23-.2-.59-.53-.91-.44-.1,0-.09.21-.05.27.22.29.54.48.73.79a4.22,4.22,0,0,1,.35.85,14.3,14.3,0,0,1,.7,2.31,16,16,0,0,1,.3,2.19c0,.36,0,.72.09,1.09a5,5,0,0,0,.25,1c0,.11.23.31.36.17a3.61,3.61,0,0,0,.65-2.65A9,9,0,0,0,270.87,233.65Z" style="fill:#9381FF"></path><path d="M273.56,222.45c-1.55,1.92-1.57,4.71-1.58,7.08,0,1.42,0,2.86,0,4.28a17,17,0,0,0,.39,4.57c0,.16.38.49.49.19a13.59,13.59,0,0,0,.31-4.23c0-1.41,0-2.81,0-4.21a34.72,34.72,0,0,1,.19-3.81c.14-1.19.41-2.35.56-3.54C274,222.64,273.72,222.26,273.56,222.45Z" style="fill:#9381FF"></path><path d="M277.2,230c-.8.15-1.39,1.07-1.75,1.75a8.92,8.92,0,0,0-.71,1.95,15.09,15.09,0,0,0-.34,2.32,3.3,3.3,0,0,0,.33,2.47c.07.08.26.19.36.1.6-.51.45-1.5.5-2.21a16.68,16.68,0,0,1,.33-2.34,10.58,10.58,0,0,1,.65-1.92,8.19,8.19,0,0,0,.8-1.82C277.39,230.24,277.35,230,277.2,230Z" style="fill:#9381FF"></path><path d="M237.75,456.47a6.82,6.82,0,0,0-1-2.09,7.41,7.41,0,0,0-1-1c-.23-.2-.58-.53-.91-.44-.09,0-.09.21,0,.27.22.29.54.48.73.79a4.48,4.48,0,0,1,.35.85,14.61,14.61,0,0,1,.7,2.31,18,18,0,0,1,.3,2.19c0,.37.05.72.09,1.09a4.79,4.79,0,0,0,.25,1c0,.11.23.31.35.18a3.64,3.64,0,0,0,.66-2.65A8.91,8.91,0,0,0,237.75,456.47Z" style="fill:#9381FF"></path><path d="M240.44,445.27c-1.56,1.92-1.57,4.7-1.59,7.07,0,1.43,0,2.86.05,4.28a16.67,16.67,0,0,0,.39,4.58c.05.16.38.48.49.18a14.22,14.22,0,0,0,.31-4.23c0-1.4,0-2.81,0-4.21a32.13,32.13,0,0,1,.19-3.8c.13-1.19.41-2.36.55-3.55C240.84,445.45,240.6,445.07,240.44,445.27Z" style="fill:#9381FF"></path><path d="M244.08,452.84c-.81.16-1.39,1.08-1.75,1.75a8.6,8.6,0,0,0-.71,2,14,14,0,0,0-.35,2.32,3.33,3.33,0,0,0,.34,2.47c.06.09.25.19.36.1.6-.5.45-1.49.5-2.21a16.89,16.89,0,0,1,.33-2.34,11.69,11.69,0,0,1,.64-1.92,8.36,8.36,0,0,0,.81-1.81C244.26,453.05,244.23,452.81,244.08,452.84Z" style="fill:#9381FF"></path><path d="M445.65,272a7.48,7.48,0,0,0-1.09-2.19,8.77,8.77,0,0,0-1-1.08c-.25-.21-.62-.55-1-.46-.1,0-.09.22-.05.29a10.09,10.09,0,0,1,.77.83,4.83,4.83,0,0,1,.37.88,16.14,16.14,0,0,1,.73,2.43,17.74,17.74,0,0,1,.31,2.29c0,.39.05.76.1,1.14a4.66,4.66,0,0,0,.26,1c0,.12.24.33.37.18a3.79,3.79,0,0,0,.69-2.77A9.4,9.4,0,0,0,445.65,272Z" style="fill:#9381FF"></path><path d="M448.47,260.24c-1.63,2-1.65,4.93-1.67,7.42,0,1.49,0,3,.05,4.48a17.89,17.89,0,0,0,.41,4.8c.06.16.4.5.51.19a14.57,14.57,0,0,0,.33-4.43c0-1.47,0-2.95,0-4.42a35.24,35.24,0,0,1,.2-4c.14-1.25.43-2.47.58-3.72C448.89,260.43,448.63,260,448.47,260.24Z" style="fill:#9381FF"></path><path d="M452.28,268.18c-.84.16-1.46,1.13-1.83,1.84a9.07,9.07,0,0,0-.75,2,16.36,16.36,0,0,0-.36,2.43,3.46,3.46,0,0,0,.35,2.59c.07.09.27.2.38.11.63-.54.47-1.57.53-2.32a16.93,16.93,0,0,1,.34-2.46,11.06,11.06,0,0,1,.68-2,8.67,8.67,0,0,0,.84-1.9C452.48,268.4,452.44,268.15,452.28,268.18Z" style="fill:#9381FF"></path><path d="M94.17,397.63a7.22,7.22,0,0,0-1.08-2.19,8.16,8.16,0,0,0-1-1.08c-.24-.21-.61-.55-1-.46-.1,0-.1.22,0,.29.23.3.57.5.77.82a4.92,4.92,0,0,1,.37.89,15.8,15.8,0,0,1,.73,2.43,17.74,17.74,0,0,1,.31,2.29c0,.39,0,.76.1,1.14a4.66,4.66,0,0,0,.26,1c0,.12.24.33.37.18a3.85,3.85,0,0,0,.69-2.77A9.05,9.05,0,0,0,94.17,397.63Z" style="fill:#9381FF"></path><path d="M97,385.89c-1.64,2-1.65,4.93-1.67,7.42,0,1.49,0,3,0,4.48a17.78,17.78,0,0,0,.41,4.79c0,.17.4.51.51.2a14.57,14.57,0,0,0,.33-4.43c0-1.48,0-3,0-4.42a33.05,33.05,0,0,1,.2-4c.14-1.25.42-2.47.58-3.72C97.42,386.08,97.16,385.68,97,385.89Z" style="fill:#9381FF"></path><path d="M100.81,393.83C100,394,99.35,395,99,395.67a8.61,8.61,0,0,0-.75,2,15.15,15.15,0,0,0-.36,2.43,3.46,3.46,0,0,0,.35,2.59c.07.08.27.2.38.1.63-.53.47-1.56.52-2.31a18.44,18.44,0,0,1,.35-2.46,11.06,11.06,0,0,1,.68-2,9.17,9.17,0,0,0,.84-1.9C101,394.05,101,393.8,100.81,393.83Z" style="fill:#9381FF"></path></g></g></g><g id="freepik--Sun--inject-33"><circle id="freepik--sun--inject-33" cx="322.2" cy="57.14" r="16.7" transform="translate(214.18 366.03) rotate(-80.78)" style="fill:#ffbda7"></circle></g><g id="freepik--Clouds--inject-33"><path id="freepik--Cloud--inject-33" d="M412.27,91.7c0-4.57-5-7.75-10.69-8.28C394.9,82.79,390.16,85.77,390,91c-4.37-1.79-9-.64-8.63,4.16-1.14-1.31-5.39-1.27-6.92-.91a6,6,0,0,0-3.81,3.25,4.42,4.42,0,0,0-.39,2.46c-2.55-.84-8.35-1.35-9.8,1-2.57,4.16,7.73,4.29,9.81,3,.44,3.24,11.52,3.77,14.2.79,2.09,2.11,5.1,2.57,8.35,2.76,3.52.21,6.55-.12,9.63-2.13a2.21,2.21,0,0,1,1-.46,2.12,2.12,0,0,1,1.08.32c4.12,2,9.22,2.76,13.2.49a2.09,2.09,0,0,1,.77-.33,2,2,0,0,1,1,.27c3.85,1.75,8.63,2.55,12.12.17a5.73,5.73,0,0,1,1.34-.8c1.9-.61,3.81.42,5.82-.43,1.6-.68,2.85-1.86,1.44-3.49-.81-.93-3.77-1.53-5-1.24-1.33-2.61-6.65-5.07-9.7-2.87-.12-3.16-3-5.63-7.07-6.26C417.09,90.59,413.82,90.41,412.27,91.7Z" style="fill:#f5f5f5"></path><path id="freepik--cloud--inject-33" d="M211.66,88.9c0-5.05-5.54-8.56-11.81-9.16-7.38-.69-12.62,2.6-12.79,8.42-4.83-2-9.93-.71-9.54,4.6-1.26-1.45-6-1.41-7.65-1a6.59,6.59,0,0,0-4.2,3.59,4.83,4.83,0,0,0-.44,2.71c-2.82-.92-9.22-1.48-10.82,1.1-2.85,4.6,8.54,4.74,10.83,3.35.49,3.58,12.73,4.17,15.69.86-.45.51,4.61,2.46,5,2.55a55.48,55.48,0,0,0,5.53,1.17,16.66,16.66,0,0,0,11.92-3.33,16.83,16.83,0,0,0,20.68.12,13.43,13.43,0,0,0,6.05,1.88,6.33,6.33,0,0,0,5.49-2.68,10.77,10.77,0,0,0,6.38.3,2.79,2.79,0,0,0,1.72-1,2,2,0,0,0,0-2,5.36,5.36,0,0,0-3.16-2,7.19,7.19,0,0,0-3.5-.3c-.3-2.55-3.16-4.06-5.48-4.28a12.29,12.29,0,0,0-4.8.67c-.22.07-.51.13-.65-.06a.59.59,0,0,1-.09-.32c-.34-3.62-4.39-5.64-7.56-6.12C217,87.67,213.38,87.47,211.66,88.9Z" style="fill:#f5f5f5"></path><path id="freepik--cloud--inject-33" d="M108.17,56c0-5.19-5.69-8.79-12.13-9.4-7.58-.71-13,2.67-13.14,8.64-5-2-10.19-.73-9.8,4.72-.12-1.64-6.23-1.3-7.21-1.14-3,.49-5.31,4.06-5.23,7a10,10,0,0,0-6.39,2.35,2.66,2.66,0,0,0-1,1.29,2.09,2.09,0,0,0,.83,2.09,5.24,5.24,0,0,0,2.2.88c2.11.44,4.11-.45,6.17-.14a10.75,10.75,0,0,1,2.36.85A14.23,14.23,0,0,0,78.3,71.76a14.49,14.49,0,0,0,9,2.86A14.3,14.3,0,0,0,92,73.77c.41-.14,3-2,3.25-1.85A24.73,24.73,0,0,0,105.58,75a13.64,13.64,0,0,0,10-3.53A18,18,0,0,0,122,73.08a7.41,7.41,0,0,0,2.67-.44c.29-.1,2.68-1.47,2.67-1.47a10.36,10.36,0,0,0,8.33.7c1.83-.61,6.22-2.77,4.2-5.1-.92-1-4.28-1.72-5.7-1.4-1.5-3-7.54-5.76-11-3.26-.14-3.58-3.41-6.39-8-7.1C113.64,54.77,109.93,54.57,108.17,56Z" style="fill:#f5f5f5"></path></g><g id="freepik--Shadows--inject-33"><g id="freepik--Shadow--inject-33" style="opacity:0.2"><ellipse id="freepik--shadow--inject-33" cx="164.58" cy="310.36" rx="53.01" ry="30.61"></ellipse><ellipse id="freepik--shadow--inject-33" cx="96" cy="340.48" rx="53.01" ry="30.61"></ellipse></g><g id="freepik--shadow--inject-33" style="opacity:0.2"><ellipse id="freepik--shadow--inject-33" cx="263.16" cy="412.02" rx="54.87" ry="31.68"></ellipse><ellipse id="freepik--shadow--inject-33" cx="194.11" cy="415.27" rx="54.87" ry="31.68"></ellipse></g><g id="freepik--shadow--inject-33" style="opacity:0.2"><ellipse id="freepik--shadow--inject-33" cx="347.46" cy="287.25" rx="54.87" ry="31.68"></ellipse><ellipse id="freepik--shadow--inject-33" cx="408.16" cy="334.45" rx="54.87" ry="31.68"></ellipse></g></g><g id="freepik--chicken-3--inject-33"><g id="freepik--Chicken--inject-33"><path d="M368.87,269.5l-2.69,20.21s7.36-.53,6.85.76-6.17,2.33-6.17,2.33,8.06,12,5.8,12.06-10.88-10.06-10.88-10.06-8.33,15.78-10.23,14.75,3.3-15.32,3.3-15.32-14.83.86-15.19-.45,19.7-5.43,19.69-5.65.54-19.51.54-19.51Z" style="fill:#455a64"></path><path d="M359.65,277a45.52,45.52,0,0,0,7.13-1.05,9.55,9.55,0,0,0,1.3-.45l.79-6-9-.88Z" style="opacity:0.15"></path><path d="M354.85,294.23l.41-1.08s-3.4.27-8.28.43c-4,.13-6.71.31-7.07-.09-.18.1-.27.2-.25.29C340,295.09,354.85,294.23,354.85,294.23Z" style="opacity:0.15"></path><path d="M361,294c-1.41,2.66-2.13,4.6-4.11,7.81-3.56,5.78-4.12,6.82-5.46,7.57a.19.19,0,0,0,.11.18c1.9,1,10.23-14.75,10.23-14.75Z" style="opacity:0.15"></path><path d="M373,290.47c.1-.26-.13-.45-.55-.58.43.34.11.79-2.24,1.24s-3.83.81-3.83.81l.45.86S372.51,291.76,373,290.47Z" style="opacity:0.15"></path><path d="M339.31,255.85l-3.08,19.33s8.67,2.9,8.17,4.13-9.51.36-9.51.36-9.82,11.09-12,11.18,3.65-9.79,3.65-9.79-15,3.29-16.78,2.31,14.37-7,14.37-7-12.62-1.43-13-2.68,17.95-.79,17.95-.79L330.71,255Z" style="fill:#455a64"></path><path d="M330,263.64a16.23,16.23,0,0,0,7.59,2.6l1.72-10.39-8.6-.84Z" style="opacity:0.15"></path><path d="M324.14,276.4l1.47-.57s-2.77-.35-7.67-1.12c-3.82-.6-6.18-.88-6.53-1.26-.17.1-.26.19-.23.27C311.52,275,324.14,276.4,324.14,276.4Z" style="opacity:0.15"></path><path d="M327.37,279.79s-5,1.3-8.55,1.95c-5.67,1.05-7.5,1.39-9.16,1.45a.18.18,0,0,0,.11.18c1.81,1,16.78-2.31,16.78-2.31Z" style="opacity:0.15"></path><path d="M339,279.21c4.14.2,5.12-.48,4.76-.81.49.34.77.66.67.91-.49,1.23-9.51.36-9.51.36l.61-.67S336.68,279.1,339,279.21Z" style="opacity:0.15"></path><path d="M386.43,260.05c-2.85,5-9.76,11.36-21.56,12.76s-23-10.34-23-10.34,3.62-5.56,21.38-5.56S386.43,260.05,386.43,260.05Z" style="fill:#9381FF"></path><path d="M386.43,260.05c-2.85,5-9.76,11.36-21.56,12.76s-23-10.34-23-10.34,3.62-5.56,21.38-5.56S386.43,260.05,386.43,260.05Z" style="fill:#fff;opacity:0.7000000000000001"></path><path d="M427.72,205a9.1,9.1,0,0,0-.59-2.83,4,4,0,0,0-1.88-2.12,13.68,13.68,0,0,0,0-4.47c-.14-.88-.41-2.16-1.23-2.66a1.82,1.82,0,0,0-2.45.14c0-2.5.05-5.11-1.09-7.33a2.58,2.58,0,0,0-1.3-1.36c-1.14-.42-2.27.56-3.19,1.36a15.51,15.51,0,0,1-7.06,3.46c-4.74,1-8.35-2.15-12.24-4.31a110.78,110.78,0,0,0-13.24-6.33,78.34,78.34,0,0,0-28.37-5.88,71.3,71.3,0,0,0-8.54.52c-.6-.62-1.23-1.23-1.89-1.82-5-4.39-11.83-6.94-18.35-7.84-4.07-.57-8.45,0-12.56.2a65.52,65.52,0,0,0-13.7,2.24,15.68,15.68,0,0,0-6.47,3.06,3.31,3.31,0,0,0-1.34,2.7c.18,1.32,1.54,2.08,2.74,2.65a9.29,9.29,0,0,0-4,1.82,3,3,0,0,0-1,1.23c-1.08,3,3.07,2.85,4.62,3-1.12-.13-3.1,7.93-3.3,8.9a77.69,77.69,0,0,0-1,12c-.12,7.22,1.08,17.74,8.21,30.71a69.83,69.83,0,0,0,26.37,26.42,71.82,71.82,0,0,0,58.53,5.29c1-.35,2-.73,2.92-1.12a67.15,67.15,0,0,0,20.07-13,69.91,69.91,0,0,0,14.44-19.1A65.72,65.72,0,0,0,426,218.66,34.33,34.33,0,0,0,427.72,205Z" style="fill:#9381FF"></path><path d="M427.72,205a9.1,9.1,0,0,0-.59-2.83,4,4,0,0,0-1.88-2.12,13.68,13.68,0,0,0,0-4.47c-.14-.88-.41-2.16-1.23-2.66a1.82,1.82,0,0,0-2.45.14c0-2.5.05-5.11-1.09-7.33a2.58,2.58,0,0,0-1.3-1.36c-1.14-.42-2.27.56-3.19,1.36a15.51,15.51,0,0,1-7.06,3.46c-4.74,1-8.35-2.15-12.24-4.31a110.78,110.78,0,0,0-13.24-6.33,78.34,78.34,0,0,0-28.37-5.88,71.3,71.3,0,0,0-8.54.52c-.6-.62-1.23-1.23-1.89-1.82-5-4.39-11.83-6.94-18.35-7.84-4.07-.57-8.45,0-12.56.2a65.52,65.52,0,0,0-13.7,2.24,15.68,15.68,0,0,0-6.47,3.06,3.31,3.31,0,0,0-1.34,2.7c.18,1.32,1.54,2.08,2.74,2.65a9.29,9.29,0,0,0-4,1.82,3,3,0,0,0-1,1.23c-1.08,3,3.07,2.85,4.62,3-1.12-.13-3.1,7.93-3.3,8.9a77.69,77.69,0,0,0-1,12c-.12,7.22,1.08,17.74,8.21,30.71a69.83,69.83,0,0,0,26.37,26.42,71.82,71.82,0,0,0,58.53,5.29c1-.35,2-.73,2.92-1.12a67.15,67.15,0,0,0,20.07-13,69.91,69.91,0,0,0,14.44-19.1A65.72,65.72,0,0,0,426,218.66,34.33,34.33,0,0,0,427.72,205Z" style="fill:#fff;opacity:0.85"></path><path d="M357.25,195.44a40.34,40.34,0,0,1-.89,15.11c1.27.2,2.17-1.17,2.64-2.36a30.59,30.59,0,0,0-3.15-28,8.14,8.14,0,0,0-3.42-3.19c-.72-.29-1.7-.32-2.09.35a2,2,0,0,0-.19.87c-.07,1.45-.22,3.3.46,4.57s2.34,2.37,3.18,3.63A22.88,22.88,0,0,1,357.25,195.44Z" style="fill:#9381FF;opacity:0.15"></path><ellipse cx="329.23" cy="207.66" rx="6.69" ry="4.61" style="fill:#9381FF;opacity:0.6000000000000001"></ellipse><path d="M292.8,195.07a4,4,0,0,0-1.92-3.23c-.27,2.15-.44,4.61-.53,6.79A4.25,4.25,0,0,0,292.8,195.07Z" style="fill:#9381FF;opacity:0.6000000000000001"></path><path d="M308.86,207a3,3,0,0,1-.2,1.07c-.57,1.78-1.11,4-2.92,4.95a6,6,0,0,1-3.14.42,54.49,54.49,0,0,1-9.22-1.48,29,29,0,0,1,5.4-3c1.6-.55,3.23-1,4.87-1.44a27.85,27.85,0,0,1,4.78-.93.4.4,0,0,1,.35.09.33.33,0,0,1,.07.18A.76.76,0,0,1,308.86,207Z" style="fill:#37474f"></path><path d="M305.83,202.26a12.26,12.26,0,0,1,2.72,3.24,2,2,0,0,1,.3.87c.09,2.38-4.26,3.27-5.83,3.69-2,.56-4.55,1-6.61,1.43-.64.14-4.52,1.33-3.41-.44a81.07,81.07,0,0,1,6.58-9.06c.87-1.05,2-2.66,4-1.5A13.73,13.73,0,0,1,305.83,202.26Z" style="fill:#455a64"></path><path d="M348.07,237.83c1.77,3,4.6,6,8,7a7.79,7.79,0,0,0,8.45-2.61,2.74,2.74,0,0,1,3.38-.59c3.5,2.33,8.41,4.17,12.46,2.1a7.61,7.61,0,0,0,3.9-9.09c-.5-1.46,1.53-2.54,2.65-2.48,3.4.2,7,.48,10.33-.61,2.65-.89,5.25-3.09,5.71-6s-1.52-5.43-3.57-7.22c-2.79-2.44-6.1-3.87-9.12-5.95-.54-.38,0-1.59.56-1.6,7.41-.1,18.59,7.14,16.54,15.67a12.58,12.58,0,0,1-7.08,8.1c-3.39,1.58-7.14,1.83-10.84,1.76a11.73,11.73,0,0,1-6,10.48c-5.21,3-11.56,2.08-16.67-.7a13.46,13.46,0,0,1-21.46-6.49C344.89,238.37,347.24,236.44,348.07,237.83Z" style="fill:#9381FF;opacity:0.15"></path><path d="M316.17,200.79a6.54,6.54,0,0,0,7,6,6.44,6.44,0,0,0,3.74-1.54s0,0,0,0a6.49,6.49,0,0,0,2.27-5.45,6.55,6.55,0,0,0-7-6,6.35,6.35,0,0,0-3.2,1.13A6.51,6.51,0,0,0,316.17,200.79Z" style="fill:#263238"></path><path d="M319,194.9c.17.28.58.06.85,0a5,5,0,0,1,2.73.27,3.24,3.24,0,0,1,1.26.82c.55.63,1.06,1.85-.24,1.7a3.23,3.23,0,0,0-1.83.34,1.38,1.38,0,0,0-.83,1.32,1.45,1.45,0,0,0,1.25.93,5.3,5.3,0,0,0,3.72-1.1,4.13,4.13,0,0,1,1.36,2.48,5.42,5.42,0,0,1-.33,3.58,6.49,6.49,0,0,0,2.27-5.45,6.55,6.55,0,0,0-7-6A6.35,6.35,0,0,0,319,194.9Z" style="fill:#fafafa"></path><path d="M321.28,194.12a4.83,4.83,0,0,1,1.26-.15,6.71,6.71,0,0,1,4.1,1.55,6.61,6.61,0,0,1,2.25,5.74,11.36,11.36,0,0,1-.66,2.48c.36.06.66-.27.85-.57a7,7,0,0,0-1.41-8.88,7.51,7.51,0,0,0-7.38-1.21,6.57,6.57,0,0,0-2.51,1.71,3.36,3.36,0,0,0-.74,1.28c0,.17-.29,1,.17.88a.61.61,0,0,0,.24-.18A8.12,8.12,0,0,1,321.28,194.12Z" style="fill:#263238"></path><path d="M290.29,191.88c0,.13,0,.26,0,.4a6.28,6.28,0,0,0,2,4,1.17,1.17,0,0,0,1.69.11,5.21,5.21,0,0,0,1.7-1.64v0a7.16,7.16,0,0,0,.77-5.87,7.8,7.8,0,0,0-1.22-2.53c-.32-.43-1.23-1.73-1.7-1.7a1.12,1.12,0,0,0-.69.38A8.63,8.63,0,0,0,290.29,191.88Z" style="fill:#263238"></path><path d="M291.94,195.94a6.61,6.61,0,0,1-1.61-3.66c0-.14,0-.27,0-.4a8.63,8.63,0,0,1,2.57-6.89,1.12,1.12,0,0,1,.69-.38c.25,0,.62.34,1,.74-.08-.09-1.34,1.31-1.44,1.44a5.35,5.35,0,0,0-1,1.75,2,2,0,0,1,.84.32,3.83,3.83,0,0,1,.9.63,2.51,2.51,0,0,1,.63,1.18,1.38,1.38,0,0,1-.11,1.16,1.23,1.23,0,0,1-.42.33,1.76,1.76,0,0,1-1.49,0,2.23,2.23,0,0,1-1.06-1.08,8.81,8.81,0,0,0,.06,2.46c.06.39.14.78.2,1.16a5.13,5.13,0,0,0,.13.66A1.5,1.5,0,0,0,291.94,195.94Z" style="fill:#fafafa"></path><path d="M295.41,185.55a5.29,5.29,0,0,0-.61-.64,2.17,2.17,0,0,0-.56-.39,1.43,1.43,0,0,0-.58-.11,1.83,1.83,0,0,0-1.79,1.71,1.87,1.87,0,0,1,1.16-.45,2.52,2.52,0,0,1,1,.49,7.69,7.69,0,0,1,1.88,2.1c.16.26.3.53.47.79,0,0,.09.11.15.11s.14-.15.14-.26A6.08,6.08,0,0,0,295.41,185.55Z" style="fill:#263238"></path><path d="M344.74,195.07l5.63-6.63a75.45,75.45,0,0,1,7.34,3,93.62,93.62,0,0,0-6.37-20.31A27.35,27.35,0,0,0,315.2,157.3a92.69,92.69,0,0,0-14.46,8.08q1.11,5.93,2.21,11.87l12.77-.73a2.31,2.31,0,0,1,2.89,2.13q1.62,5.34,3.25,10.68l12.22-4.68a3,3,0,0,1,4.43,1.57Z" style="fill:#f5f5f5"></path><path d="M326.34,155.92a26.4,26.4,0,0,1,24.08,15.63,92.93,92.93,0,0,1,5.92,18.18c-1.91-.84-3.8-1.59-5.64-2.24l-.65-.22-.45.52L346.9,191l-2.09,2.47-5.48-7.79a5,5,0,0,0-3-2.38,3,3,0,0,0-.52-.05,6,6,0,0,0-2.06.49L322.5,188l-1.31-4.31-1.62-5.34a4,4,0,0,0-1.57-2.45,3.34,3.34,0,0,0-1.74-.41l-.6,0-11.89.68-.9-4.85-1-5.51a93.29,93.29,0,0,1,13.76-7.63,26.2,26.2,0,0,1,10.74-2.29h0m0-1a27.15,27.15,0,0,0-11.14,2.38,92.69,92.69,0,0,0-14.46,8.08L303,177.25l12.77-.73.54,0a2.31,2.31,0,0,1,1.22.27,3,3,0,0,1,1.13,1.88q1.62,5.34,3.25,10.68l12.22-4.68a5,5,0,0,1,1.71-.43,2.19,2.19,0,0,1,.36,0,4.1,4.1,0,0,1,2.36,2l6.23,8.85,5.63-6.63a75.45,75.45,0,0,1,7.34,3,93.62,93.62,0,0,0-6.37-20.31,27.36,27.36,0,0,0-25-16.23Z" style="fill:#ebebeb"></path></g></g><g id="freepik--Eggshell--inject-33"><g id="freepik--Egg--inject-33"><path d="M384.56,292.51a31.13,31.13,0,0,1,9.16-18.65A32.56,32.56,0,0,1,400,269c2-1.17,4-2.34,6.11-3.32a71.52,71.52,0,0,0-.43,9.37q10.47.1,20.92.87a82.19,82.19,0,0,0-3.51,14.95c0,.19,19.69,2.5,21.46,3.11a.41.41,0,0,1,.24.17.45.45,0,0,1,0,.28c-.4,1.3-1.15,2.48-1.68,3.74q-1,2.28-2,4.54-2,4.51-4.2,9c-.06.11,8.06,3.17,8.79,3.44s1.47.6,1.71,1.3a2.45,2.45,0,0,1-.51,2,49.07,49.07,0,0,1-5.87,7.81c-1,1.12-2.22,2.45-2,4s2,2.53,3.43,3.28,3.07,2,2.85,3.64a3.84,3.84,0,0,1-.86,1.72c-4.86,6.5-13.51,9.53-21.6,8.77s-15.57-4.91-21.55-10.4A53.56,53.56,0,0,1,384.56,292.51Z" style="fill:#e0e0e0"></path><path d="M384.56,292.51a31.13,31.13,0,0,1,9.16-18.65A32.56,32.56,0,0,1,400,269c2-1.17,4-2.34,6.11-3.32a71.52,71.52,0,0,0-.43,9.37q10.47.1,20.92.87a82.19,82.19,0,0,0-3.51,14.95c0,.19,19.69,2.5,21.46,3.11a.41.41,0,0,1,.24.17.45.45,0,0,1,0,.28c-.4,1.3-1.15,2.48-1.68,3.74q-1,2.28-2,4.54-2,4.51-4.2,9c-.06.11,8.06,3.17,8.79,3.44s1.47.6,1.71,1.3a2.45,2.45,0,0,1-.51,2,49.07,49.07,0,0,1-5.87,7.81c-1,1.12-2.22,2.45-2,4s2,2.53,3.43,3.28,3.07,2,2.85,3.64a3.84,3.84,0,0,1-.86,1.72c-4.86,6.5-13.51,9.53-21.6,8.77s-15.57-4.91-21.55-10.4A53.56,53.56,0,0,1,384.56,292.51Z" style="opacity:0.1"></path><path d="M448.67,340c-.26.21-.53.43-.8.63-1.14.86-2.29,1.69-3.48,2.5-.44.31-.89.61-1.34.9s-1.06.69-1.61,1c-1.3.82-2.64,1.61-4,2.37-.64.39-1.31.75-2,1.11s-1.35.69-2.05,1a44.27,44.27,0,0,1-57.72-19.66c-.22-.41-.42-.82-.62-1.24-.4-.82-.78-1.65-1.12-2.5s-.67-1.67-1-2.53-.47-1.46-.68-2.18a39.51,39.51,0,0,1-1-4.47c-.13-.7-.22-1.39-.3-2.09a44,44,0,0,1,.73-15.28c.21-.9.44-1.79.7-2.67.13-.47.27-.93.43-1.39s.29-.89.45-1.33.33-.88.51-1.32c.34-.86.72-1.72,1.12-2.56.2-.42.42-.85.62-1.27s.44-.83.67-1.24v0a43.94,43.94,0,0,1,16.13-16.63c.65-.38,1.32-.75,2-1.1s1.36-.7,2-1a89.17,89.17,0,0,1,11.47-4.69,74.66,74.66,0,0,0-12.37,16.78l14.78,3.65c-1.91,7.36-8.42,12.65-11.36,19.69l20,6.19a2.44,2.44,0,0,1,1.1.58,2.3,2.3,0,0,1,.05,2.21q-2.89,9.17-5.8,18.3l17.37-.48a1.54,1.54,0,0,1,1.92,1.47c.24,1,.46,2,.65,3a51.39,51.39,0,0,1,.81,6.89C439.52,341.78,444.1,340.88,448.67,340Z" style="fill:#f5f5f5"></path><path d="M404.32,266.7a75.94,75.94,0,0,0-9.74,14l-.61,1.14,1.25.31,2.4.59L409,285.54c-1.13,3.51-3.32,6.54-5.63,9.74a45.17,45.17,0,0,0-5.4,8.84l-.42,1,1,.32,8.66,2.69,11.31,3.5a2.1,2.1,0,0,1,.64.28c.08.09.16.37-.14,1.26q-2.83,9-5.68,17.88l-.13.41-.42,1.34,1.41,0,8.57-.23,8.8-.24h.22a1.19,1.19,0,0,1,.43.05h0a1.66,1.66,0,0,1,.27.67c.23,1,.45,2,.64,3a50.48,50.48,0,0,1,.79,6.74l.05,1.16,1.14-.22,1.87-.37,7.45-1.47-.66.45c-.39.28-.81.57-1.31.88s-1.05.69-1.59,1q-1.94,1.21-4,2.37c-.58.35-1.24.71-1.94,1.08s-1.37.69-2,1a42.74,42.74,0,0,1-18.06,4,43.17,43.17,0,0,1-38.35-23.19c-.22-.4-.42-.8-.61-1.21-.46-.93-.8-1.7-1.09-2.43s-.65-1.6-.94-2.48-.48-1.46-.67-2.14a41.44,41.44,0,0,1-1-4.37c-.11-.6-.2-1.27-.29-2a43.12,43.12,0,0,1,.72-14.93c.19-.87.42-1.72.68-2.61.13-.44.26-.9.43-1.38s.27-.83.43-1.27l.11-.28q.18-.51.39-1c.29-.75.65-1.57,1.09-2.5l.3-.61.28-.56.69-1.24a43.14,43.14,0,0,1,15.75-16.26c.6-.35,1.24-.7,1.95-1.08s1.4-.71,2-1c2.44-1.19,4.95-2.29,7.52-3.27m3.51-2.31a89.17,89.17,0,0,0-11.47,4.69c-.68.31-1.36.65-2,1s-1.34.72-2,1.1a43.94,43.94,0,0,0-16.13,16.63v0c-.23.41-.45.82-.67,1.24s-.42.85-.62,1.27c-.4.84-.78,1.7-1.12,2.56-.18.44-.34.89-.51,1.32s-.31.88-.45,1.33-.3.92-.43,1.39c-.26.88-.49,1.77-.7,2.67a44,44,0,0,0-.73,15.28c.08.7.17,1.39.3,2.09a39.51,39.51,0,0,0,1,4.47c.21.72.44,1.46.68,2.18s.62,1.69,1,2.53.72,1.68,1.12,2.5c.2.42.4.83.62,1.24a44.26,44.26,0,0,0,57.72,19.66c.7-.32,1.38-.66,2.05-1s1.35-.72,2-1.11c1.36-.76,2.7-1.55,4-2.37.55-.34,1.08-.68,1.61-1s.9-.59,1.34-.9c1.19-.81,2.34-1.64,3.48-2.5.27-.2.54-.42.8-.63-4.57.92-9.15,1.82-13.71,2.72a51.39,51.39,0,0,0-.81-6.89c-.19-1-.41-2-.65-3a2,2,0,0,0-.66-1.24,1.73,1.73,0,0,0-1-.24h-.25l-17.37.48q2.9-9.15,5.8-18.3a2.3,2.3,0,0,0-.05-2.21,2.44,2.44,0,0,0-1.1-.58l-20-6.19c2.94-7,9.45-12.33,11.36-19.69l-14.78-3.65a74.66,74.66,0,0,1,12.37-16.78Z" style="fill:#ebebeb"></path><path d="M435,342.68c4.56-.9,9.14-1.8,13.71-2.72-.26.21-.53.43-.8.63-1.14.86-2.29,1.69-3.48,2.5-.44.31-.89.61-1.34.9s-1.06.69-1.61,1c-1.3.82-2.64,1.61-4,2.37-.64.39-1.31.75-2,1.11s-1.35.69-2.05,1a44.27,44.27,0,0,1-57.72-19.66c-.22-.41-.42-.82-.62-1.24-.4-.82-.78-1.65-1.12-2.5s-.67-1.67-1-2.53-.47-1.46-.68-2.18a39.51,39.51,0,0,1-1-4.47c-.13-.7-.22-1.39-.3-2.09a44,44,0,0,1,.73-15.28c.21-.9.44-1.79.7-2.67.13-.47.27-.93.43-1.39s.29-.89.45-1.33.33-.88.51-1.32c.34-.86.72-1.72,1.12-2.56.2-.42.42-.85.62-1.27s.44-.83.67-1.24c-.86,10.85.79,27.85,20.5,40.71,12.83,8.35,25.66,9.92,37.45,7.3A51.39,51.39,0,0,1,435,342.68Z" style="fill:#ebebeb"></path></g></g><g id="freepik--chicken-1--inject-33"><g id="freepik--chicken--inject-33"><path d="M144.29,294l2.28,17.12s-6.23-.45-5.8.64,5.23,2,5.23,2-6.83,10.14-4.91,10.22,9.21-8.52,9.21-8.52,7,13.36,8.66,12.49-2.8-13-2.8-13,12.56.72,12.87-.39-17.22-4.9-17.21-5.09-.45-16.52-.45-16.52Z" style="fill:#455a64"></path><path d="M151.57,300a35.34,35.34,0,0,1-5.51-.58A7.92,7.92,0,0,1,145,299l-.68-5.07,7.08-1.05Z" style="opacity:0.15"></path><path d="M156.16,314.92l-.34-.92s2.88.23,7,.36c3.42.12,5.68.26,6-.07.15.09.23.17.21.24C168.72,315.64,156.16,314.92,156.16,314.92Z" style="opacity:0.15"></path><path d="M151,314.72c1.19,2.25,1.81,3.89,3.48,6.6,3,4.9,3.49,5.78,4.63,6.41a.18.18,0,0,1-.1.16c-1.61.87-8.66-12.49-8.66-12.49Z" style="opacity:0.15"></path><path d="M140.77,311.73c-.09-.22.11-.38.47-.49-.36.29-.1.67,1.89,1.05s3.24.69,3.24.69l-.37.72S141.21,312.82,140.77,311.73Z" style="opacity:0.15"></path><path d="M174.6,281.93l2.62,16.5s-7.4,2.47-7,3.52,8.11.31,8.11.31,8.39,9.46,10.24,9.54-3.12-8.35-3.12-8.35,12.78,2.81,14.33,2-12.27-5.95-12.27-5.95,10.77-1.22,11.07-2.29-16.79-.67-16.79-.67l-1.35-15.3Z" style="fill:#455a64"></path><path d="M181.07,288.58c-1.51,1.09-2.81,2.1-5,2.22l-1.46-8.87,5.87-.72Z" style="opacity:0.15"></path><path d="M187.54,299.47l-1.25-.49s2.36-.3,6.54-1c3.26-.52,5.28-.76,5.58-1.08.14.08.21.16.2.23C198.31,298.25,187.54,299.47,187.54,299.47Z" style="opacity:0.15"></path><path d="M184.78,302.36s4.28,1.11,7.3,1.67a63.58,63.58,0,0,0,7.82,1.24.16.16,0,0,1-.09.15c-1.55.84-14.33-2-14.33-2Z" style="opacity:0.15"></path><path d="M174.89,301.87c-3.54.17-4.38-.41-4.07-.69-.42.29-.66.56-.57.77.42,1.05,8.11.31,8.11.31l-.51-.57S176.83,301.77,174.89,301.87Z" style="opacity:0.15"></path><path d="M126.48,282.51c2.83,5,9.67,11.27,21.37,12.66s22.78-10.26,22.78-10.26-3.59-5.51-21.2-5.51S126.48,282.51,126.48,282.51Z" style="fill:#9381FF"></path><path d="M126.48,282.51c2.83,5,9.67,11.27,21.37,12.66s22.78-10.26,22.78-10.26-3.59-5.51-21.2-5.51S126.48,282.51,126.48,282.51Z" style="fill:#fff;opacity:0.7000000000000001"></path><path d="M220,222.2a87.49,87.49,0,0,0-.3-19.35c-1.09-9.07-4.37-18.27-12.12-23.73a3.38,3.38,0,0,1-1.35-1.38c-.36-.94.2-2,.68-2.83,1.73-3.19,2.39-7.47,0-10.23s-8.19-1.5-8,2.13c-1.68-4.24-5-9.37-9.41-8.08-4.1,1.22-4.49,6.8-4.05,11.05-.11-1.14-9.94,1.14-10.84,1.46a30.63,30.63,0,0,0-10.07,5.91c-6.34,5.55-9.74,13.43-14.79,20.07-4.23,5.55-10,10.59-17.22,11.43-7,.82-15.06-.18-20.55-4.86-2.32-2-4.08-4.52-6.25-6.64s-5-3.89-8-3.67c-4.16.29-7.29,4.36-7.82,8.5s.94,8.26,2.65,12.06a14,14,0,0,0-.87,22.45c-2.46,3-3.06,7.16-2.34,10.95A29.45,29.45,0,0,0,94,257.91a71.34,71.34,0,0,0,35.51,28.24A72.74,72.74,0,0,0,165,289.57a63.66,63.66,0,0,0,9.15-2.15,54.91,54.91,0,0,0,22.74-13.91C209.9,259.47,217.27,241,220,222.2Z" style="fill:#9381FF"></path><path d="M220,222.2a87.49,87.49,0,0,0-.3-19.35c-1.09-9.07-4.37-18.27-12.12-23.73a3.38,3.38,0,0,1-1.35-1.38c-.36-.94.2-2,.68-2.83,1.73-3.19,2.39-7.47,0-10.23s-8.19-1.5-8,2.13c-1.68-4.24-5-9.37-9.41-8.08-4.1,1.22-4.49,6.8-4.05,11.05-.11-1.14-9.94,1.14-10.84,1.46a30.63,30.63,0,0,0-10.07,5.91c-6.34,5.55-9.74,13.43-14.79,20.07-4.23,5.55-10,10.59-17.22,11.43-7,.82-15.06-.18-20.55-4.86-2.32-2-4.08-4.52-6.25-6.64s-5-3.89-8-3.67c-4.16.29-7.29,4.36-7.82,8.5s.94,8.26,2.65,12.06a14,14,0,0,0-.87,22.45c-2.46,3-3.06,7.16-2.34,10.95A29.45,29.45,0,0,0,94,257.91a71.34,71.34,0,0,0,35.51,28.24A72.74,72.74,0,0,0,165,289.57a63.66,63.66,0,0,0,9.15-2.15,54.91,54.91,0,0,0,22.74-13.91C209.9,259.47,217.27,241,220,222.2Z" style="fill:#fff;opacity:0.85"></path><path d="M162.36,263.71c-1.76,2.94-4.56,6-7.93,7a7.72,7.72,0,0,1-8.37-2.6,2.75,2.75,0,0,0-3.36-.58c-3.46,2.31-8.33,4.13-12.35,2.08a7.54,7.54,0,0,1-3.86-9c.5-1.45-1.52-2.52-2.63-2.45-3.38.19-7,.47-10.24-.62-2.63-.87-5.2-3.06-5.67-5.91s1.52-5.39,3.55-7.16c2.76-2.42,6-3.84,9-5.9.53-.37,0-1.58-.56-1.59-7.35-.09-18.42,7.09-16.4,15.54a12.57,12.57,0,0,0,7,8c3.37,1.56,7.08,1.8,10.75,1.73a11.63,11.63,0,0,0,6,10.4c5.16,3,11.46,2.06,16.52-.7a13.45,13.45,0,0,0,11.28,2.77,13.3,13.3,0,0,0,10-9.21C165.51,264.25,163.18,262.34,162.36,263.71Z" style="fill:#9381FF;opacity:0.15"></path><path d="M182.62,211.36c.14,2.76-2.82,5.16-6.61,5.36s-7-1.89-7.13-4.65,2.82-5.16,6.61-5.35S182.48,208.6,182.62,211.36Z" style="fill:#9381FF;opacity:0.6000000000000001"></path><path d="M219.65,202.85c0-.1,0-.21,0-.31a4.17,4.17,0,0,0-1.22,3.07,4.26,4.26,0,0,0,1.79,3.14C220.06,206.77,219.88,204.79,219.65,202.85Z" style="fill:#9381FF;opacity:0.6000000000000001"></path><path d="M199.5,212.7c0,.36-1.27.57-1.12.88a27.4,27.4,0,0,0,2.49,4.42,4.66,4.66,0,0,0,3.62,2.33,83.6,83.6,0,0,0,9.34.89.93.93,0,0,0,.66-.12c.3-.24.17-.71,0-1.06q-.9-2.11-1.92-4.17a11.56,11.56,0,0,0-.79-1.62c-.32-.44-1.16-.48-1.65-.6-1.72-.4-3.46-.72-5.2-1a29.63,29.63,0,0,0-5.05-.45.31.31,0,0,0-.41.32Z" style="fill:#37474f"></path><path d="M214.64,220.47a1.94,1.94,0,0,0-.12-.43q-.9-2.11-1.92-4.17a11.56,11.56,0,0,0-.79-1.62c-.32-.44-1.16-.48-1.65-.6-1.72-.4-3.46-.72-5.2-1-1.31-.19-2.64-.38-4-.44-1,1.27,0,3.49,3,5.39.48.3,5.37,1.81,8,2.54A9.41,9.41,0,0,0,214.64,220.47Z" style="fill:#263238"></path><path d="M198.34,212.45c-1.14,2.24,4.2,2.52,7.42,2.83,2.18.22,4.94.44,7.11.68.69.08,4.83.89,3.49-.8a83.3,83.3,0,0,0-7.78-8.59c-1-1-3.06-2.28-4.35-1.11C203.51,206.11,199.34,210.49,198.34,212.45Z" style="fill:#455a64"></path><path d="M189.14,204.71a6.54,6.54,0,0,1-10.76,4.49s0,0,0,0a6.54,6.54,0,0,1,4.74-11.48,6.35,6.35,0,0,1,3.2,1.13A6.48,6.48,0,0,1,189.14,204.71Z" style="fill:#263238"></path><path d="M186.31,198.82c-.17.27-.58.06-.85,0a5.09,5.09,0,0,0-2.73.26,3.34,3.34,0,0,0-1.26.83c-.55.63-1.06,1.85.24,1.7a3.15,3.15,0,0,1,1.83.34,1.37,1.37,0,0,1,.83,1.31,1.42,1.42,0,0,1-1.25.93,5.23,5.23,0,0,1-3.71-1.1,4.14,4.14,0,0,0-1.37,2.49,5.43,5.43,0,0,0,.33,3.58,6.54,6.54,0,0,1,4.74-11.48A6.35,6.35,0,0,1,186.31,198.82Z" style="fill:#fafafa"></path><path d="M184,198a4.41,4.41,0,0,0-1.25-.15,6.5,6.5,0,0,0-6.36,7.29,11.13,11.13,0,0,0,.66,2.47c-.36.07-.66-.26-.85-.57a7,7,0,0,1,1.41-8.87A7.55,7.55,0,0,1,185,197a6.73,6.73,0,0,1,2.5,1.71,3.48,3.48,0,0,1,.74,1.29c0,.17.29,1-.17.88a.52.52,0,0,1-.23-.18A8.12,8.12,0,0,0,184,198Z" style="fill:#263238"></path><path d="M220.86,200.64c0,.14,0,.27,0,.41a6.28,6.28,0,0,1-2,4,1.17,1.17,0,0,1-1.69.11,5.32,5.32,0,0,1-1.7-1.64.06.06,0,0,1,0,0,7.13,7.13,0,0,1-.77-5.86,7.54,7.54,0,0,1,1.23-2.53c.31-.43,1.22-1.73,1.69-1.71a1.18,1.18,0,0,1,.69.39A8.62,8.62,0,0,1,220.86,200.64Z" style="fill:#263238"></path><path d="M219.21,204.71a6.64,6.64,0,0,0,1.61-3.66c0-.14,0-.27,0-.41a8.62,8.62,0,0,0-2.57-6.88,1.18,1.18,0,0,0-.69-.39c-.25,0-.62.35-1,.75.08-.09,1.34,1.31,1.44,1.44a5.25,5.25,0,0,1,1,1.75,2,2,0,0,0-.84.32,4,4,0,0,0-.9.63,2.51,2.51,0,0,0-.63,1.18,1.38,1.38,0,0,0,.11,1.16,1.23,1.23,0,0,0,.42.33,1.84,1.84,0,0,0,1.49,0,2.27,2.27,0,0,0,1.06-1.08,8.81,8.81,0,0,1-.06,2.46c-.06.39-.14.78-.2,1.16a5.13,5.13,0,0,1-.13.66A1.5,1.5,0,0,1,219.21,204.71Z" style="fill:#fafafa"></path><path d="M215.74,194.31a6.05,6.05,0,0,1,.61-.63,2.17,2.17,0,0,1,.56-.39,1.62,1.62,0,0,1,.58-.12,1.85,1.85,0,0,1,1.79,1.72,1.81,1.81,0,0,0-1.16-.45,2.52,2.52,0,0,0-1,.49,7.55,7.55,0,0,0-1.88,2.1c-.16.26-.3.53-.47.78,0,.06-.09.12-.15.12s-.14-.15-.14-.26A6.14,6.14,0,0,1,215.74,194.31Z" style="fill:#263238"></path></g></g><g id="freepik--egg--inject-33"><g id="freepik--egg--inject-33"><path d="M132.74,294.11A85.28,85.28,0,0,0,88.13,249a25.05,25.05,0,0,0-33,13,85.21,85.21,0,0,0-1.92,63.4q.34,1,.75,2.07c.27.69.56,1.36.86,2a42.78,42.78,0,0,0,79.51-31.29c-.24-.69-.49-1.38-.76-2.07S133.05,294.78,132.74,294.11Z" style="fill:#f5f5f5"></path><path d="M78.13,247.9a24,24,0,0,1,9.62,2,84.21,84.21,0,0,1,44.11,44.6c.3.66.58,1.33.84,2s.51,1.34.74,2A41.81,41.81,0,0,1,55.73,329.1c-.3-.65-.58-1.32-.84-2s-.51-1.35-.74-2.05A84.2,84.2,0,0,1,56,262.39,24.12,24.12,0,0,1,78.13,247.9m0-1a25.05,25.05,0,0,0-23,15.06,85.21,85.21,0,0,0-1.92,63.4q.34,1,.75,2.07c.27.69.56,1.36.86,2a42.78,42.78,0,0,0,79.51-31.29c-.24-.69-.49-1.38-.76-2.07s-.55-1.36-.86-2A85.28,85.28,0,0,0,88.13,249a25.09,25.09,0,0,0-10-2.08Z" style="fill:#ebebeb"></path><path d="M135.68,320.53C129.43,329,117.49,340.39,95,337.32c-34.89-4.76-45.48-37.59-43.78-64.1a85.1,85.1,0,0,0,2.06,52.18q.34,1,.75,2.07c.27.69.56,1.36.86,2a42.78,42.78,0,0,0,80.83-9Z" style="fill:#ebebeb"></path></g></g><g id="freepik--chicken-2--inject-33"><g id="freepik--chicken--inject-33"><path d="M235.52,331.21a23.82,23.82,0,0,1,.14,11.06,13.7,13.7,0,0,1-6.1,8.9,15.55,15.55,0,0,1-8.84,1.69,26.85,26.85,0,0,1-20.49-12.05,5.44,5.44,0,0,1-1.14-3.75c.47-2.57,3.74-3.31,6.35-3.49a19.06,19.06,0,0,1-9.64-6.08,6.71,6.71,0,0,1-1.85-3.83c-.16-2.68,2.43-4.88,5.09-5.28s5.31.51,7.84,1.42a34.65,34.65,0,0,1-6.81-6.66c-1.61-2.08-3-5.06-1.43-7.19,1.12-1.55,3.3-1.86,5.21-1.75,5,.28,9.65,2.43,13.85,5.1C225.71,314.38,233.2,322,235.52,331.21Z" style="fill:#9381FF"></path><path d="M235.52,331.21a23.82,23.82,0,0,1,.14,11.06,13.7,13.7,0,0,1-6.1,8.9,15.55,15.55,0,0,1-8.84,1.69,26.85,26.85,0,0,1-20.49-12.05,5.44,5.44,0,0,1-1.14-3.75c.47-2.57,3.74-3.31,6.35-3.49a19.06,19.06,0,0,1-9.64-6.08,6.71,6.71,0,0,1-1.85-3.83c-.16-2.68,2.43-4.88,5.09-5.28s5.31.51,7.84,1.42a34.65,34.65,0,0,1-6.81-6.66c-1.61-2.08-3-5.06-1.43-7.19,1.12-1.55,3.3-1.86,5.21-1.75,5,.28,9.65,2.43,13.85,5.1C225.71,314.38,233.2,322,235.52,331.21Z" style="fill:#fff;opacity:0.7000000000000001"></path><path d="M219.32,316a5.41,5.41,0,0,0-7,3.9,6.22,6.22,0,0,0,.55,4.09,6.59,6.59,0,0,0,1.59,1.94,4.75,4.75,0,0,0-2.8,4.51,6.8,6.8,0,0,0,2.94,5.23,4,4,0,0,0-1.61,2.6,5.45,5.45,0,0,0,3.73,5.69c1,.33,1.52-.79.75-1.47s-2-1.68-2-3c0-1,.86-2.38,2-2.31,1.59.08,1.49-1.71.22-2.22-1.65-.66-3.22-1.84-3.43-3.74s1.08-3.65,3-3.28a1,1,0,0,0,.81-1.83c-1.7-1.54-3.68-2.57-3.24-5.23a4.73,4.73,0,0,1,4.61-3.58C220.12,317.33,219.79,316.11,219.32,316Z" style="fill:#9381FF;opacity:0.15"></path><path d="M294.23,328.74a21.41,21.41,0,0,0-.12,10.05,12.39,12.39,0,0,0,5.54,8.09,14.11,14.11,0,0,0,8,1.54,24.36,24.36,0,0,0,18.62-10.95,4.87,4.87,0,0,0,1-3.41c-.42-2.34-3.4-3-5.76-3.17a17.4,17.4,0,0,0,8.76-5.53,6.23,6.23,0,0,0,1.68-3.47c.14-2.44-2.21-4.45-4.63-4.81s-4.83.47-7.13,1.29a31.4,31.4,0,0,0,6.19-6.05c1.46-1.89,2.7-4.6,1.3-6.53-1-1.41-3-1.69-4.73-1.59-4.52.25-8.77,2.21-12.59,4.63C303.15,313.44,296.33,320.39,294.23,328.74Z" style="fill:#9381FF"></path><path d="M294.23,328.74a21.41,21.41,0,0,0-.12,10.05,12.39,12.39,0,0,0,5.54,8.09,14.11,14.11,0,0,0,8,1.54,24.36,24.36,0,0,0,18.62-10.95,4.87,4.87,0,0,0,1-3.41c-.42-2.34-3.4-3-5.76-3.17a17.4,17.4,0,0,0,8.76-5.53,6.23,6.23,0,0,0,1.68-3.47c.14-2.44-2.21-4.45-4.63-4.81s-4.83.47-7.13,1.29a31.4,31.4,0,0,0,6.19-6.05c1.46-1.89,2.7-4.6,1.3-6.53-1-1.41-3-1.69-4.73-1.59-4.52.25-8.77,2.21-12.59,4.63C303.15,313.44,296.33,320.39,294.23,328.74Z" style="fill:#fff;opacity:0.7000000000000001"></path><path d="M305.84,316a5.39,5.39,0,0,1,7,3.9,6.1,6.1,0,0,1-.55,4.09,6.44,6.44,0,0,1-1.59,1.94,4.76,4.76,0,0,1,2.81,4.51,6.81,6.81,0,0,1-2.95,5.23,4,4,0,0,1,1.62,2.6,5.45,5.45,0,0,1-3.73,5.69c-1,.33-1.52-.79-.76-1.47s2-1.68,2-3c0-1-.85-2.38-2-2.31-1.58.08-1.48-1.71-.21-2.22,1.64-.66,3.22-1.84,3.43-3.74s-1.08-3.65-3-3.28a1,1,0,0,1-.81-1.83c1.7-1.54,3.68-2.57,3.24-5.23a4.74,4.74,0,0,0-4.62-3.58C305,317.33,305.37,316.11,305.84,316Z" style="fill:#9381FF;opacity:0.15"></path><path d="M303.62,346a46.5,46.5,0,0,1-1.92-5.1c-2.83-9.54-3.11-19.64-6.13-29.14a52.3,52.3,0,0,0-5.35-11.62,51.06,51.06,0,0,0-3.82-5.4c-.9-1.12-3.13-2.46-3.63-3.73-.36-.94.21-1.95.69-2.84,1.74-3.21,2.4-7.52,0-10.28s-8.23-1.51-8.07,2.13c-1.7-4.26-5.07-9.42-9.47-8.11-4.12,1.22-4.51,6.83-4.06,11.1-.13-1.25-10.6,1.2-11.87,1.66a34,34,0,0,0-9.53,5.34,34.42,34.42,0,0,0-11.95,18c-2,7.56-1.33,15.55-2.29,23.31-2.31,18.62-11.7,35.83-8.43,55.1,2.18,12.85,13.15,36.35,46.08,36.35s43.9-23.5,46.08-36.35c0-5.58.79-10.86.13-16.51s-2.3-11.07-3.75-16.63A53.15,53.15,0,0,0,303.62,346Z" style="fill:#9381FF"></path><path d="M303.62,346a46.5,46.5,0,0,1-1.92-5.1c-2.83-9.54-3.11-19.64-6.13-29.14a52.3,52.3,0,0,0-5.35-11.62,51.06,51.06,0,0,0-3.82-5.4c-.9-1.12-3.13-2.46-3.63-3.73-.36-.94.21-1.95.69-2.84,1.74-3.21,2.4-7.52,0-10.28s-8.23-1.51-8.07,2.13c-1.7-4.26-5.07-9.42-9.47-8.11-4.12,1.22-4.51,6.83-4.06,11.1-.13-1.25-10.6,1.2-11.87,1.66a34,34,0,0,0-9.53,5.34,34.42,34.42,0,0,0-11.95,18c-2,7.56-1.33,15.55-2.29,23.31-2.31,18.62-11.7,35.83-8.43,55.1,2.18,12.85,13.15,36.35,46.08,36.35s43.9-23.5,46.08-36.35c0-5.58.79-10.86.13-16.51s-2.3-11.07-3.75-16.63A53.15,53.15,0,0,0,303.62,346Z" style="fill:#fff;opacity:0.85"></path><path d="M273.78,327.38c.1.36-1.18.81-1,1.1a28.86,28.86,0,0,0,3.35,4,4.82,4.82,0,0,0,4.11,1.7,63.39,63.39,0,0,0,8.27,0,1,1,0,0,0,.65-.24c.26-.3.05-.76-.17-1.08-.86-1.33-2.15-3.1-3.1-4.37a11.81,11.81,0,0,0-1.1-1.5c-.41-.39.51-.62,0-.64-1.82-.09-3.65-.11-5.47,0a31.47,31.47,0,0,0-5.22.48.41.41,0,0,0-.34.19.34.34,0,0,0,0,.2Z" style="fill:#37474f"></path><path d="M289.22,333.31a1.76,1.76,0,0,0-.21-.41c-.86-1.33-2.15-3.1-3.1-4.37a11.81,11.81,0,0,0-1.1-1.5c-.41-.39.51-.62,0-.64-1.82-.09-3.65-.11-5.47,0a40.34,40.34,0,0,0-4.11.29c-.82,1.47.64,3.55,4.09,4.92a49.82,49.82,0,0,0,7.11,1.65A7,7,0,0,0,289.22,333.31Z" style="fill:#263238"></path><path d="M272.56,327.34c-.75,2.49,4.73,1.79,8.06,1.52a55.5,55.5,0,0,0,6.81-.95c2.55-.53,3.46-1.05,1.79-2.52-3-2.65-4.19-3.37-7.33-5.92-1.14-.92-3.54-1.76-4.63-.33C276.65,319.94,273.21,325.16,272.56,327.34Z" style="fill:#455a64"></path><path d="M260.41,320.75c.44,2.48-2.26,5-6,5.7s-7.16-.81-7.6-3.29,2.26-5,6-5.7S260,318.27,260.41,320.75Z" style="fill:#9381FF;opacity:0.6000000000000001"></path><path d="M295.57,311.78c-.35-1.11-.75-2.21-1.18-3.29-1.93,1.13-3.07,2.84-2.77,4.52.34,1.93,2.5,3.25,5.21,3.42C296.47,314.87,296.06,313.32,295.57,311.78Z" style="fill:#9381FF;opacity:0.6000000000000001"></path><path d="M294.31,307.09c-2.16-.94-4.7.14-6.42,1.53a7.11,7.11,0,0,0-2.53,3.72c-.15.6-.32,1.35.5,1.22a4.71,4.71,0,0,0,1.8-1.09,22.43,22.43,0,0,1,3-1.87,7.59,7.59,0,0,1,3.34-.82c.52,0,1.14,0,1.44-.42a1,1,0,0,0,.17-.53A2,2,0,0,0,294.31,307.09Z" style="fill:#263238"></path><path d="M256,316.08a7.55,7.55,0,0,1,8.08-1.75,7.15,7.15,0,0,1,3.62,2.68c.34.52.75,1.17-.07,1.32a4.77,4.77,0,0,1-2.06-.44,10.69,10.69,0,0,0-7.51.48c-.58.27-2.92,1.77-3.1.65A3.67,3.67,0,0,1,256,316.08Z" style="fill:#263238"></path><path d="M312.79,380.31c0,.74,0,1.48-.05,2.2-1.14,22.65-22.64,40.8-49.14,41s-48.31-17.72-49.81-40.36c-.06-.72-.09-1.46-.09-2.2s0-1.48,0-2.2c.21-10,2.1-22.52,5.92-31.37,2.17,4.2,4,11.68,5.94,16,.1.24.29.52.58.49a.71.71,0,0,0,.39-.23q4.77-4.65,9.2-9.58a2.41,2.41,0,0,1,2.08-1.09,2.22,2.22,0,0,1,1,.58c1.51,1.3,9.11,13.33,10.31,15.32l12.13-9.77a4.78,4.78,0,0,1,2.2-1.19c1.84-.26,3,1.45,4.21,2.69,3.7,3.83,8.12,8.58,8.12,8.58s8.9-12.12,9.69-13.09a2.28,2.28,0,0,1,1.32-.93,2.35,2.35,0,0,1,1.23.29c4.28,2,11.49,7.69,11.49,7.69q3-6.94,6.26-13.74a75.79,75.79,0,0,1,6.88,28.74C312.76,378.83,312.79,379.56,312.79,380.31Z" style="fill:#f5f5f5"></path><path d="M219.72,350c.81,2,1.59,4.34,2.35,6.63.88,2.67,1.71,5.2,2.58,7.14a1.61,1.61,0,0,0,1.48,1.12h.16a1.64,1.64,0,0,0,1-.51c3.12-3,6.23-6.28,9.25-9.63.45-.51.8-.76,1.06-.76h.09a1.75,1.75,0,0,1,.51.34c1.28,1.11,8.5,12.42,10.1,15.07l.61,1,.92-.75L262,359.87a3.79,3.79,0,0,1,1.7-1l.22,0c.91,0,1.7.87,2.54,1.8l.56.6c3.65,3.78,8.06,8.52,8.11,8.57l.85.91.74-1c3.07-4.18,9-12.29,9.63-13,.23-.25.48-.55.69-.57a2.09,2.09,0,0,1,.64.2c4.12,1.92,11.22,7.51,11.29,7.56l1.06.84.53-1.24c1.6-3.77,3.37-7.69,5.27-11.68a74.52,74.52,0,0,1,5.89,26.33c.05.82.07,1.5.07,2.17s0,1.42,0,2.13c-1.12,22.26-22.26,39.82-48.12,40h-.35c-25.68,0-47-17.31-48.42-39.41-.06-.69-.08-1.41-.08-2.14s0-1.42,0-2.16c.16-8.17,1.56-19.69,4.94-28.76m-.06-2.63c-3.82,8.85-5.71,21.41-5.92,31.37,0,.72-.05,1.46,0,2.2s0,1.48.09,2.2c1.5,22.54,23.09,40.36,49.45,40.36h.36c26.5-.16,48-18.31,49.14-41,.05-.72.06-1.46.05-2.2s0-1.48-.08-2.21a75.79,75.79,0,0,0-6.88-28.74q-3.3,6.81-6.26,13.74s-7.21-5.69-11.49-7.69a2.82,2.82,0,0,0-1.08-.3h-.15a2.28,2.28,0,0,0-1.32.93c-.79,1-9.69,13.09-9.69,13.09s-4.42-4.75-8.12-8.58c-1.1-1.15-2.21-2.71-3.84-2.71l-.37,0a4.78,4.78,0,0,0-2.2,1.19l-12.13,9.77c-1.2-2-8.8-14-10.31-15.32a2.22,2.22,0,0,0-1-.58l-.25,0a2.66,2.66,0,0,0-1.83,1.11q-4.43,4.92-9.2,9.58a.71.71,0,0,1-.39.23h-.05c-.26,0-.43-.27-.53-.49-1.92-4.32-3.77-11.8-5.94-16Z" style="fill:#ebebeb"></path><path d="M304.89,403.83c-9.87,6.86-25.54,12.18-42.62,6.76C239.73,403.44,228.51,382,239.34,354a4.28,4.28,0,0,0-.47-.51,2.22,2.22,0,0,0-1-.58,2.41,2.41,0,0,0-2.08,1.09q-4.43,4.92-9.2,9.58a.71.71,0,0,1-.39.23c-.29,0-.48-.25-.58-.49-1.92-4.32-3.77-11.8-5.94-16-3.82,8.85-5.71,21.41-5.92,31.37,0,.72-.05,1.46,0,2.2s0,1.48.09,2.2c1.5,22.64,23.29,40.52,49.81,40.36C280.94,423.36,296.14,415.56,304.89,403.83Z" style="fill:#ebebeb"></path><g id="freepik--egg--inject-33"><path d="M219.31,369.1q2.72,7.86,5.76,15.62s-9.52-.1-14.13,1a2.07,2.07,0,0,0-1.11.56,2.17,2.17,0,0,0-.26,1.63c.15,1.34,2.78,17.3,2.78,17.3s-6.78-1.13-12.35-1.94c-1.79-.27-3.94-.94-5.08.47a4.5,4.5,0,0,0-.7,2.42c-.5,5.38-1.49,16.09-1.49,16.09-2.37-.89-16.93-6.07-19-6.19a2,2,0,0,0-1.17.18c-.74.43-.76,1.44-.7,2.27.31,4.67.49,9.35.5,14a.71.71,0,0,1-.11.45c-.19.22-.54.1-.79,0-4.64-2.38-9.14-5.14-13.87-7.26a96.33,96.33,0,0,1-6.47-39.86A28.31,28.31,0,0,1,180.78,359,96.35,96.35,0,0,1,219.31,369.1Z" style="fill:#f5f5f5"></path><path d="M179.37,358.92v1c.45,0,.91,0,1.36,0a94.83,94.83,0,0,1,37.74,9.84c1.66,4.8,3.37,9.45,5.08,13.85-2.9,0-9.27.18-12.87,1a3,3,0,0,0-1.65.9,3.17,3.17,0,0,0-.49,2.41c.13,1.12,1.9,12,2.56,15.92-2.3-.37-7-1.12-10.94-1.7l-.8-.14a12.67,12.67,0,0,0-2.3-.27,3.57,3.57,0,0,0-2.94,1.25,5.26,5.26,0,0,0-.93,3c-.39,4.21-1.09,11.71-1.37,14.75-4.06-1.47-15.95-5.67-18-5.79h-.37a2.62,2.62,0,0,0-1.39.33c-1.39.81-1.25,2.58-1.2,3.23.29,4.44.46,8.85.49,13.13-1.52-.8-3-1.63-4.53-2.45-2.72-1.5-5.53-3-8.39-4.35a94.45,94.45,0,0,1-6.24-39A27.24,27.24,0,0,1,179.37,360v-1m0,0a28.32,28.32,0,0,0-28.25,26.89,96.33,96.33,0,0,0,6.47,39.86c4.73,2.12,9.23,4.88,13.87,7.26a1.17,1.17,0,0,0,.5.16.4.4,0,0,0,.29-.12.71.71,0,0,0,.11-.45c0-4.67-.19-9.35-.5-14-.06-.83,0-1.84.7-2.27a1.65,1.65,0,0,1,.86-.19h.31c2.07.12,16.63,5.3,19,6.19,0,0,1-10.71,1.49-16.09a4.5,4.5,0,0,1,.7-2.42,2.56,2.56,0,0,1,2.14-.87,19.59,19.59,0,0,1,2.94.4c5.57.81,12.35,1.94,12.35,1.94s-2.63-16-2.78-17.3a2.17,2.17,0,0,1,.26-1.63,2.07,2.07,0,0,1,1.11-.56c3.9-.93,11.3-1,13.5-1h.63Q222,377,219.31,369.1A96.35,96.35,0,0,0,180.78,359c-.47,0-.94,0-1.41,0Z" style="fill:#ebebeb"></path></g><path d="M194.34,405.18s-3.34,10-11.27,8.52-30.59-7.14-30.83-34.37a28.12,28.12,0,0,0-1.12,6.48,96.33,96.33,0,0,0,6.47,39.86c4.73,2.12,9.23,4.88,13.87,7.26.25.14.6.26.79,0a.71.71,0,0,0,.11-.45c0-4.67-.19-9.35-.5-14-.06-.83,0-1.84.7-2.27a2,2,0,0,1,1.17-.18c2.07.12,16.63,5.3,19,6.19,0,0,1-10.71,1.49-16.09,0-.31.07-.64.12-.95Z" style="fill:#ebebeb"></path></g></g></svg>
